<?xml version="1.0" encoding="utf-8"?>
<!-- Generator: Adobe Illustrator 22.1.0, SVG Export Plug-In . SVG Version: 6.00 Build 0)  -->
<svg version="1.1" id="Layer_1" xmlns="http://www.w3.org/2000/svg" xmlns:xlink="http://www.w3.org/1999/xlink" x="0px" y="0px"
	 viewBox="0 0 100 100" style="enable-background:new 0 0 100 100;" xml:space="preserve">
<style type="text/css">
	.st0{fill:#7472F6;enable-background:new    ;}
	.st1{fill:#FFFFFF;}
</style>
<title>icon</title>
<desc>Created with Sketch.</desc>
<path id="Combined-Shape" class="st0" d="M50,100C22.4,100,0,77.6,0,50S22.4,0,50,0s50,22.4,50,50S77.6,100,50,100z"/>
<path class="st1" d="M56,26.7L50,33c-0.4,0.5-1,0-1,0l-7.7-8.2c-2.4-2.5-6.3-2.6-8.8-0.2c-0.1,0.1-0.2,0.2-0.2,0.2
	c-2.5,2.6-2.5,6.8,0,9.4L45,47.6c2.4,2.5,6.3,2.6,8.8,0.2c0.1-0.1,0.2-0.2,0.2-0.2l10.7-11.2l1.9-2c1.2-1.3,3.2-1.3,4.5-0.1
	c0,0,0.1,0.1,0.1,0.1c1.3,1.3,1.3,3.4,0,4.8l-1.9,2L49.9,61.5c-0.6,0.6-1.2,0-1.2,0L27.5,39.4c-2.4-2.5-6.3-2.6-8.8-0.2
	c-0.1,0.1-0.2,0.2-0.2,0.2c-2.5,2.6-2.5,6.8,0,9.4l26.4,27.5l-0.1-0.1c2.4,2.5,6.3,2.6,8.8,0.2c0.1-0.1,0.2-0.2,0.2-0.2l24.6-25.6
	l0.3-0.3c6.3-6.5,6.3-17.1,0-23.6S62.3,20.2,56,26.7"/>
</svg>
